<svg width="300" height="282" viewBox="0 0 300 282" fill="none" xmlns="http://www.w3.org/2000/svg">
<rect width="300" height="281.327" rx="20" fill="#D9D9D9" fill-opacity="0.5"/>
<g clip-path="url(#clip0_12_5)">
<path d="M163.206 81.384H95.7112C94.3413 81.3858 93.028 81.9308 92.0593 82.8995C91.0906 83.8681 90.5457 85.1814 90.5439 86.5513V120.37H100.931C101.691 120.368 102.439 120.56 103.103 120.927C103.768 121.295 104.328 121.826 104.73 122.471L108.331 128.202L111.773 133.677L112.419 134.707L116.358 140.971L116.403 141.043H168.373V86.5513C168.371 85.1814 167.826 83.8681 166.857 82.8995C165.889 81.9308 164.576 81.3858 163.206 81.384Z" fill="#CCCCCC"/>
<path d="M136.452 91.7224H103.009C102.123 91.7224 101.272 92.0746 100.646 92.7015C100.019 93.3284 99.6665 94.1786 99.6665 95.0652C99.6665 95.9517 100.019 96.802 100.646 97.4289C101.272 98.0558 102.123 98.408 103.009 98.408H136.452C137.339 98.408 138.189 98.0558 138.816 97.4289C139.443 96.802 139.795 95.9517 139.795 95.0652C139.795 94.1786 139.443 93.3284 138.816 92.7015C138.189 92.0746 137.339 91.7224 136.452 91.7224Z" fill="white"/>
<path d="M154.998 108.138H103.314C102.346 108.138 101.418 108.522 100.733 109.206C100.049 109.891 99.6647 110.819 99.6647 111.787C99.6647 112.755 100.049 113.683 100.733 114.367C101.418 115.051 102.346 115.436 103.314 115.436H154.998C155.966 115.436 156.894 115.051 157.578 114.367C158.263 113.683 158.647 112.755 158.647 111.787C158.647 110.819 158.263 109.891 157.578 109.206C156.894 108.522 155.966 108.138 154.998 108.138Z" fill="white"/>
<path d="M158.298 123.008C158.004 122.381 157.538 121.85 156.953 121.478C156.369 121.106 155.691 120.908 154.998 120.907H103.314C103.235 120.907 103.16 120.911 103.081 120.915C103.755 121.283 104.323 121.819 104.731 122.471L108.331 128.202H154.998C155.612 128.202 156.215 128.047 156.753 127.752C157.291 127.456 157.746 127.03 158.075 126.512C158.404 125.994 158.597 125.401 158.636 124.789C158.675 124.176 158.559 123.564 158.298 123.008Z" fill="white"/>
<path d="M158.61 136.834C158.491 135.96 158.059 135.159 157.395 134.579C156.731 133.998 155.88 133.678 154.998 133.677H111.773L112.419 134.707L116.358 140.972H154.998C155.757 140.973 156.498 140.735 157.114 140.291C157.587 139.954 157.973 139.509 158.239 138.992C158.505 138.476 158.644 137.903 158.643 137.323C158.644 137.159 158.632 136.996 158.61 136.834Z" fill="white"/>
<path d="M199.865 110.509L194.604 108.453L168.373 98.2163L136.99 85.9688C135.712 85.4731 134.29 85.5041 133.036 86.0549C131.781 86.6058 130.796 87.6317 130.296 88.9076L129.199 91.7224L126.587 98.4079L122.792 108.137L119.943 115.436L117.808 120.907L114.96 128.202L112.822 133.677L112.762 133.835L112.419 134.707L116.358 140.971L116.403 141.043H189.35C190.02 141.042 190.681 141.192 191.285 141.481C191.89 141.769 192.421 142.19 192.842 142.711L193.15 141.93L196.915 132.287L202.8 117.206C203.297 115.928 203.267 114.506 202.717 113.251C202.167 111.995 201.141 111.009 199.865 110.509Z" fill="#425D70"/>
<path d="M171.184 110.411L168.373 109.314L140.03 98.254C139.203 97.9342 138.284 97.9542 137.472 98.3098C136.66 98.6653 136.022 99.3275 135.697 100.152C135.376 100.979 135.397 101.899 135.753 102.711C136.109 103.523 136.773 104.161 137.598 104.485L146.96 108.138L158.538 112.655L168.373 116.496L168.752 116.642C169.578 116.963 170.498 116.943 171.309 116.586C172.12 116.229 172.756 115.566 173.078 114.74C173.4 113.915 173.382 112.996 173.027 112.184C172.671 111.372 172.009 110.735 171.184 110.411Z" fill="white"/>
<path d="M182.488 132.448L168.373 126.939L158.298 123.008L152.916 120.907L138.899 115.436L134.344 113.658C133.494 113.326 132.551 113.325 131.7 113.654C130.85 113.983 130.153 114.619 129.748 115.436C129.703 115.53 129.658 115.627 129.62 115.729C129.446 116.175 129.361 116.651 129.371 117.13C129.381 117.609 129.485 118.081 129.677 118.52C129.869 118.958 130.146 119.355 130.492 119.686C130.837 120.018 131.245 120.278 131.691 120.453L132.856 120.907L151.541 128.202L168.373 134.771L179.835 139.247C180.257 139.411 180.705 139.495 181.158 139.495C182.009 139.496 182.834 139.2 183.489 138.657C184.145 138.115 184.591 137.36 184.749 136.524C184.906 135.688 184.767 134.822 184.354 134.078C183.941 133.334 183.281 132.757 182.488 132.448H182.488Z" fill="white"/>
<path d="M168.373 140.645L167.467 140.291L158.61 136.834L150.518 133.677L136.486 128.202L129.699 125.552C129.252 125.378 128.776 125.293 128.296 125.302C127.817 125.312 127.344 125.416 126.905 125.608C126.466 125.801 126.069 126.078 125.737 126.424C125.405 126.77 125.145 127.178 124.971 127.625C124.796 128.072 124.712 128.548 124.722 129.028C124.733 129.507 124.837 129.98 125.03 130.419C125.224 130.858 125.501 131.254 125.848 131.586C126.194 131.917 126.603 132.177 127.05 132.351L130.447 133.677L147.395 140.291L149.139 140.972L149.32 141.043H169.391L168.373 140.645Z" fill="white"/>
<path d="M134.088 140.972L132.345 140.291L125.058 137.446C124.549 137.247 124.001 137.165 123.456 137.206C122.911 137.247 122.382 137.41 121.908 137.683C121.435 137.956 121.029 138.333 120.72 138.784C120.412 139.236 120.209 139.751 120.127 140.291C120.091 140.516 120.077 140.744 120.086 140.972C120.085 140.995 120.086 141.019 120.09 141.043H134.272L134.088 140.972Z" fill="white"/>
<path d="M149.139 140.972L147.395 140.291H120.127C120.091 140.516 120.077 140.744 120.086 140.972H116.358L116.403 141.043H149.32L149.139 140.972ZM149.139 140.972H116.358L116.403 141.043H149.32L149.139 140.972ZM149.139 140.972H116.358L116.403 141.043H149.32L149.139 140.972ZM149.32 141.043L149.139 140.972H116.358L116.403 141.043H149.32ZM83.5503 216.298C82.3608 216.296 81.2205 215.823 80.3794 214.982C79.5383 214.14 79.065 213 79.0632 211.811V124.861C79.0642 123.671 79.5372 122.53 80.3783 121.688C81.2195 120.846 82.3602 120.372 83.5503 120.37H90.5439V119.618H83.5503C82.161 119.621 80.8295 120.174 79.8475 121.157C78.8655 122.14 78.3132 123.472 78.3116 124.861V211.811C78.3128 212.816 78.6028 213.799 79.1472 214.644C79.6915 215.489 80.4672 216.159 81.3819 216.576H147.591C147.531 216.486 147.471 216.392 147.411 216.298H83.5503ZM193.15 141.93C192.662 141.412 192.073 141 191.419 140.718C190.766 140.436 190.062 140.291 189.35 140.291H116.82L112.762 133.835L112.664 133.677L109.221 128.202L105.366 122.069C104.893 121.319 104.239 120.702 103.463 120.274C102.688 119.845 101.817 119.62 100.931 119.618H83.5503C82.161 119.621 80.8295 120.174 79.8475 121.157C78.8655 122.14 78.3132 123.472 78.3116 124.861V211.811C78.3128 212.816 78.6028 213.799 79.1472 214.644C79.6915 215.489 80.4672 216.159 81.3819 216.576C82.0618 216.889 82.8017 217.05 83.5503 217.049H189.35C190.1 217.05 190.841 216.889 191.523 216.576C192.437 216.159 193.213 215.489 193.757 214.644C194.302 213.799 194.592 212.816 194.593 211.811V145.534C194.594 144.192 194.077 142.901 193.15 141.93ZM193.841 211.811C193.839 213.001 193.365 214.141 192.523 214.983C191.681 215.824 190.54 216.297 189.35 216.298H83.5503C82.3608 216.296 81.2205 215.823 80.3794 214.982C79.5383 214.14 79.065 213 79.0632 211.811V124.861C79.0642 123.671 79.5372 122.53 80.3783 121.688C81.2195 120.846 82.3602 120.372 83.5503 120.37H100.931C101.691 120.368 102.439 120.56 103.103 120.927C103.768 121.295 104.328 121.826 104.731 122.471L108.331 128.202L111.773 133.677L112.419 134.707L116.358 140.972L116.403 141.043H189.35C190.541 141.044 191.683 141.517 192.525 142.359C193.367 143.201 193.84 144.343 193.841 145.534V211.811ZM149.139 140.972H116.358L116.403 141.043H149.32L149.139 140.972ZM149.139 140.972H116.358L116.403 141.043H149.32L149.139 140.972ZM149.139 140.972H116.358L116.403 141.043H149.32L149.139 140.972ZM149.139 140.972L147.395 140.291H116.82L112.762 133.835L112.419 134.707L116.358 140.972L116.403 141.043H149.32L149.139 140.972Z" fill="#3F3D56"/>
<path d="M62.9742 172.145L60.8216 176.646L42.4384 170.485L45.615 163.842L62.9742 172.145Z" fill="#FFB8B8"/>
<path d="M57.7983 179.663L62.1496 170.566L67.6144 173.18L60.8493 187.324L60.4314 187.124C59.0928 186.484 58.0634 185.338 57.5697 183.939C57.0759 182.54 57.1581 181.002 57.7983 179.663Z" fill="#2F2E41"/>
<path d="M67.3076 212.335L62.3218 212.167L62.1117 192.759L67.9566 193.104L67.3076 212.335Z" fill="#FFB8B8"/>
<path d="M58.3454 210.607L68.424 210.947L68.2197 217.001L52.5497 216.472L52.5653 216.009C52.6154 214.526 53.2525 213.124 54.3364 212.111C55.4204 211.098 56.8625 210.557 58.3454 210.607Z" fill="#2F2E41"/>
<path d="M75.3368 131.111C75.3368 131.111 60.0773 127.245 53.1597 132.942L49.2939 144.132L33.8309 166.106L56.2116 179.534L60.2808 169.361L50.5147 164.478L62.3154 154.305L60.2808 208.019L68.0123 209.239C68.0123 209.239 85.1029 142.911 75.3368 131.111Z" fill="#2F2E41"/>
<path d="M52.1859 134.597L52.3719 134.266C54.3325 130.781 54.0148 125.105 53.4031 120.957C52.8908 117.483 52.9062 111.361 53.0093 106.837C53.0348 105.31 53.5794 103.837 54.5535 102.661C55.5277 101.485 56.8732 100.675 58.3688 100.365C63.0109 99.3993 68.7099 99.1946 71.6939 99.1585L71.6963 99.3619L71.6939 99.1585C72.5046 99.1552 73.2843 99.4699 73.8657 100.035C74.4471 100.6 74.7839 101.37 74.8038 102.181C74.8946 107.053 74.8664 115.937 73.6573 120.704C71.8629 127.778 74.6689 132.586 74.6975 132.634L74.8668 132.917L52.1859 134.597Z" fill="#425D70"/>
<path d="M44.3365 154.108C44.8333 153.87 45.2718 153.526 45.6213 153.1C45.9707 152.675 46.2226 152.177 46.3591 151.644C46.4956 151.11 46.5135 150.553 46.4115 150.012C46.3094 149.471 46.09 148.959 45.7686 148.511L54.3804 111.375H47.8697L40.2693 147.779C39.5537 148.369 39.0794 149.201 38.9362 150.117C38.7929 151.033 38.9907 151.97 39.492 152.75C39.9934 153.53 40.7635 154.099 41.6563 154.349C42.5492 154.6 43.5028 154.514 44.3365 154.108Z" fill="#FFB8B8"/>
<path d="M96.7001 117.553L82.3284 103.958L78.4442 109.396L88.1548 117.941L75.4198 128.054C75.3279 128.048 75.2362 128.04 75.1425 128.04C74.3589 128.04 73.5916 128.265 72.9325 128.688C72.2734 129.112 71.7503 129.717 71.4259 130.431C71.1016 131.144 70.9896 131.936 71.1033 132.711C71.2171 133.486 71.5519 134.212 72.0676 134.803C72.5832 135.393 73.258 135.822 74.0111 136.038C74.7642 136.255 75.5638 136.25 76.3142 136.024C77.0646 135.798 77.734 135.361 78.2424 134.764C78.7508 134.168 79.0766 133.438 79.1808 132.661L79.221 132.701L96.7001 117.553Z" fill="#FFB8B8"/>
<path d="M57.4547 100.843C57.4547 100.843 48.48 99.3708 47.6662 106.288C46.8524 113.206 46.4454 113.206 46.4454 113.206C46.4454 113.206 52.9562 111.985 54.5838 113.613C56.2115 115.241 57.4547 100.843 57.4547 100.843Z" fill="#425D70"/>
<path d="M70.8607 99.7777C70.8607 99.7777 78.1853 98.5569 81.4406 101.812C84.696 105.068 86.3237 105.881 86.3237 105.881C86.3237 105.881 78.9991 109.951 81.8476 113.613C81.8476 113.613 74.1161 109.951 72.8953 111.171C71.6746 112.392 70.8607 99.7777 70.8607 99.7777Z" fill="#425D70"/>
<path d="M64.4363 76.1529C62.1259 74.3077 61.5188 70.7465 62.8593 68.1109C64.1998 65.4754 67.2306 63.8876 70.185 64.0062C73.1395 64.1248 75.9234 65.821 77.6351 68.2321C80.0394 71.6189 80.544 76.3263 83.7411 78.9778C86.6287 81.3727 90.7654 81.3041 94.5121 81.1136C95.7751 81.0494 97.0789 80.9749 98.2122 80.4138C99.3455 79.8526 100.271 78.6691 100.125 77.413C101.067 78.903 100.521 80.9922 99.2577 82.2216C97.9949 83.451 96.1968 83.9661 94.4463 84.1711C91.3581 84.4957 88.2387 84.0103 85.3952 82.7627C82.5516 81.5151 80.0821 79.5483 78.2298 77.0561C76.9262 75.2577 75.9202 73.1635 74.1313 71.8469C72.3425 70.5302 69.3599 70.4385 68.2617 72.3692C67.7186 73.3241 67.7719 74.5219 67.2724 75.5004C66.7729 76.4788 65.151 77.0064 64.67 76.0187" fill="#2F2E41"/>
<path d="M64.0831 95.7763C70.3097 95.7763 75.3573 90.7287 75.3573 84.5021C75.3573 78.2756 70.3097 73.228 64.0831 73.228C57.8566 73.228 52.809 78.2756 52.809 84.5021C52.809 90.7287 57.8566 95.7763 64.0831 95.7763Z" fill="#2F2E41"/>
<path d="M64.0151 96.6588C69.1128 96.6588 73.2452 92.5263 73.2452 87.4286C73.2452 82.331 69.1128 78.1985 64.0151 78.1985C58.9174 78.1985 54.785 82.331 54.785 87.4286C54.785 92.5263 58.9174 96.6588 64.0151 96.6588Z" fill="#FFB8B8"/>
<path d="M55.5989 80.6497C56.8534 80.9241 56.4429 83.0284 57.4341 83.8446C58.3283 84.5809 59.616 83.8237 60.7414 83.5496C62.1623 83.2035 63.6494 83.7105 64.9612 84.3568C66.273 85.0032 67.5379 85.8053 68.969 86.1064C70.4 86.4075 72.0966 86.0681 72.8988 84.8454C73.6659 83.6763 73.3835 82.0997 72.7834 80.8368C72.0373 79.2665 70.8663 77.9365 69.4031 76.9976C67.9399 76.0586 66.2431 75.5482 64.5047 75.5241C62.7663 75.5 61.0559 75.9632 59.5673 76.8613C58.0787 77.7593 56.8713 79.0563 56.0819 80.6053" fill="#2F2E41"/>
</g>
<defs>
<clipPath id="clip0_12_5">
<rect width="292" height="153.327" fill="white" transform="translate(4 64)"/>
</clipPath>
</defs>
</svg>
