<svg width="302" height="299" viewBox="0 0 302 299" fill="none" xmlns="http://www.w3.org/2000/svg">
<rect x="0.975464" width="300.049" height="299" rx="20" fill="#D9D9D9" fill-opacity="0.5"/>
<g clip-path="url(#clip0_12_8)">
<path d="M31.3513 178.515C31.3116 178.468 31.2834 178.413 31.2691 178.354C25.9226 156.271 26.8215 133.136 33.8653 111.534C40.909 89.9327 53.8203 70.7149 71.1565 56.0281C88.4927 41.3413 109.571 31.7639 132.037 28.366C154.502 24.9681 177.47 27.8835 198.374 36.7865C198.421 36.8066 198.464 36.8358 198.5 36.8724C198.536 36.909 198.564 36.9523 198.584 36.9999C198.603 37.0475 198.612 37.0984 198.612 37.1497C198.611 37.201 198.601 37.2517 198.581 37.2989C198.561 37.3461 198.532 37.3889 198.495 37.4249C198.458 37.4608 198.415 37.4892 198.367 37.5084C198.32 37.5276 198.269 37.5372 198.218 37.5367C198.166 37.5363 198.116 37.5257 198.068 37.5056C155.3 19.3199 106.77 26.7313 71.4165 56.8478C36.2786 86.7804 21.1862 133.268 32.0289 178.17C32.0496 178.256 32.0408 178.345 32.004 178.425C31.9673 178.505 31.9047 178.57 31.8263 178.61C31.748 178.65 31.6585 178.662 31.5723 178.645C31.4861 178.628 31.4082 178.582 31.3513 178.515Z" fill="#E6E6E6"/>
<path d="M102.78 262.366C102.723 262.299 102.69 262.215 102.686 262.127C102.683 262.039 102.709 261.953 102.761 261.882C102.813 261.811 102.887 261.759 102.972 261.736C103.057 261.712 103.147 261.718 103.228 261.752C145.835 279.596 194.132 272.086 229.27 242.153C264.957 211.753 280.111 165.023 268.82 120.199C268.808 120.149 268.805 120.098 268.813 120.047C268.82 119.996 268.837 119.947 268.864 119.903C268.89 119.859 268.925 119.821 268.966 119.79C269.007 119.76 269.054 119.737 269.104 119.725C269.154 119.712 269.205 119.71 269.256 119.717C269.307 119.725 269.356 119.742 269.4 119.768C269.444 119.795 269.482 119.83 269.513 119.871C269.543 119.912 269.566 119.959 269.578 120.009C275.058 141.79 274.363 164.667 267.572 186.075C260.54 208.138 247.443 227.777 229.777 242.748C212.528 257.449 191.538 267.077 169.143 270.559C146.747 274.042 123.825 271.242 102.926 262.473C102.869 262.449 102.819 262.413 102.78 262.366Z" fill="#E6E6E6"/>
<path d="M93.7496 269.302C93.7163 269.263 93.691 269.217 93.6752 269.169C93.6594 269.12 93.6533 269.068 93.6574 269.017C93.6615 268.966 93.6757 268.916 93.699 268.87C93.7224 268.825 93.7546 268.784 93.7936 268.751L278.38 111.509C278.459 111.441 278.562 111.408 278.665 111.417C278.768 111.425 278.864 111.474 278.931 111.553C278.998 111.632 279.031 111.734 279.023 111.837C279.015 111.941 278.966 112.036 278.887 112.104L94.3004 269.346C94.2614 269.379 94.2161 269.404 94.1673 269.42C94.1185 269.436 94.067 269.442 94.0158 269.438C93.9647 269.434 93.9149 269.42 93.8692 269.396C93.8235 269.373 93.7828 269.341 93.7496 269.302Z" fill="#E6E6E6"/>
<path d="M23.0688 186.329C23.0355 186.29 23.0102 186.245 22.9944 186.196C22.9786 186.147 22.9726 186.096 22.9767 186.045C22.9808 185.994 22.9949 185.944 23.0183 185.898C23.0417 185.853 23.0738 185.812 23.1129 185.779L207.7 28.5365C207.779 28.4694 207.881 28.4364 207.984 28.4447C208.087 28.4531 208.183 28.502 208.25 28.5808C208.317 28.6597 208.35 28.7619 208.342 28.8652C208.334 28.9684 208.285 29.0642 208.206 29.1314L23.6196 186.373C23.5806 186.407 23.5353 186.432 23.4865 186.448C23.4377 186.464 23.3862 186.47 23.3351 186.466C23.2839 186.461 23.2341 186.447 23.1884 186.424C23.1427 186.401 23.1021 186.369 23.0688 186.329Z" fill="#E6E6E6"/>
<path d="M131.454 141.132H81.8309C81.7272 141.132 81.6278 141.091 81.5546 141.018C81.4813 140.944 81.4401 140.845 81.4401 140.741C81.4401 140.638 81.4813 140.538 81.5546 140.465C81.6278 140.392 81.7272 140.351 81.8309 140.351H131.454C131.557 140.351 131.657 140.392 131.73 140.465C131.803 140.538 131.844 140.638 131.844 140.741C131.844 140.845 131.803 140.944 131.73 141.018C131.657 141.091 131.557 141.132 131.454 141.132Z" fill="#F2F2F2"/>
<path d="M93.7496 269.302C93.7163 269.263 93.691 269.217 93.6752 269.169C93.6594 269.12 93.6533 269.068 93.6574 269.017C93.6615 268.966 93.6757 268.916 93.699 268.87C93.7224 268.825 93.7546 268.784 93.7936 268.751L278.38 111.509C278.459 111.441 278.562 111.408 278.665 111.417C278.768 111.425 278.864 111.474 278.931 111.553C278.998 111.632 279.031 111.734 279.023 111.837C279.015 111.941 278.966 112.036 278.887 112.104L94.3004 269.346C94.2614 269.379 94.2161 269.404 94.1673 269.42C94.1185 269.436 94.067 269.442 94.0158 269.438C93.9647 269.434 93.9149 269.42 93.8692 269.396C93.8235 269.373 93.7828 269.341 93.7496 269.302Z" fill="#E6E6E6"/>
<path d="M238.785 91.8097H167.344V91.4357C167.344 91.1444 167.228 90.865 167.022 90.659C166.816 90.453 166.537 90.3373 166.246 90.3373H136.049C135.757 90.3373 135.478 90.453 135.272 90.659C135.066 90.865 134.95 91.1444 134.95 91.4357V91.8097H63.2148C61.9332 91.8097 60.704 92.3189 59.7978 93.2251C58.8915 94.1314 58.3824 95.3605 58.3824 96.6422V194.467C58.3824 195.748 58.8915 196.977 59.7978 197.884C60.704 198.79 61.9332 199.299 63.2148 199.299H238.785C240.067 199.299 241.296 198.79 242.202 197.884C243.108 196.977 243.617 195.748 243.617 194.467V96.6422C243.617 95.3605 243.108 94.1314 242.202 93.2251C241.296 92.3189 240.067 91.8097 238.785 91.8097Z" fill="#3F3D56"/>
<path d="M67.0579 102.094C66.938 102.095 66.8231 102.142 66.7383 102.227C66.6536 102.312 66.6059 102.427 66.6058 102.547V195.336C66.6059 195.455 66.6536 195.57 66.7383 195.655C66.8231 195.74 66.938 195.788 67.0579 195.788H234.942C235.062 195.788 235.177 195.74 235.261 195.655C235.346 195.57 235.394 195.455 235.394 195.336V102.547C235.394 102.427 235.346 102.312 235.261 102.227C235.177 102.142 235.062 102.095 234.942 102.094H67.0579Z" fill="#425D70"/>
<path d="M150.853 97.6995C151.829 97.6995 152.62 96.9085 152.62 95.9326C152.62 94.9567 151.829 94.1656 150.853 94.1656C149.877 94.1656 149.086 94.9567 149.086 95.9326C149.086 96.9085 149.877 97.6995 150.853 97.6995Z" fill="#425D70"/>
<path d="M246.835 192.706H230.022V190.97C230.022 190.874 229.914 190.797 229.782 190.797H224.017C223.884 190.797 223.777 190.874 223.777 190.97V192.706H220.174V190.97C220.174 190.874 220.067 190.797 219.934 190.797H214.169C214.037 190.797 213.929 190.874 213.929 190.97V192.706H210.326V190.97C210.326 190.874 210.219 190.797 210.086 190.797H204.322C204.189 190.797 204.081 190.874 204.081 190.97V192.706H200.479V190.97C200.479 190.874 200.371 190.797 200.238 190.797H194.474C194.341 190.797 194.234 190.874 194.234 190.97V192.706H190.631V190.97C190.631 190.874 190.523 190.797 190.391 190.797H184.626C184.494 190.797 184.386 190.874 184.386 190.97V192.706H180.783V190.97C180.783 190.874 180.676 190.797 180.543 190.797H174.779C174.646 190.797 174.538 190.874 174.538 190.97V192.706H170.936V190.97C170.936 190.874 170.828 190.797 170.695 190.797H125.54C125.407 190.797 125.3 190.874 125.3 190.97V192.706H121.697V190.97C121.697 190.874 121.589 190.797 121.457 190.797H115.692C115.56 190.797 115.452 190.874 115.452 190.97V192.706H111.849V190.97C111.849 190.874 111.742 190.797 111.609 190.797H105.845C105.712 190.797 105.604 190.874 105.604 190.97V192.706H102.002V190.97C102.002 190.874 101.894 190.797 101.761 190.797H95.9969C95.8642 190.797 95.7567 190.874 95.7567 190.97V192.706H92.1539V190.97C92.1539 190.874 92.0464 190.797 91.9137 190.797H86.1492C86.0165 190.797 85.909 190.874 85.909 190.97V192.706H82.3062V190.97C82.3062 190.874 82.1987 190.797 82.066 190.797H76.3015C76.1688 190.797 76.0613 190.874 76.0613 190.97V192.706H72.4585V190.97C72.4585 190.874 72.3509 190.797 72.2183 190.797H66.4538C66.3211 190.797 66.2136 190.874 66.2136 190.97V192.706H55.1649C51.9813 192.706 49.4004 194.561 49.4004 196.85V198.724C49.4004 201.012 51.9813 202.868 55.1649 202.868H246.835C250.019 202.868 252.599 201.012 252.599 198.724V196.85C252.599 194.561 250.019 192.706 246.835 192.706Z" fill="#3F3D56"/>
<path d="M131.454 149.728H81.8309C81.7272 149.728 81.6278 149.687 81.5546 149.614C81.4813 149.541 81.4401 149.441 81.4401 149.338C81.4401 149.234 81.4813 149.134 81.5546 149.061C81.6278 148.988 81.7272 148.947 81.8309 148.947H131.454C131.557 148.947 131.657 148.988 131.73 149.061C131.803 149.134 131.844 149.234 131.844 149.338C131.844 149.441 131.803 149.541 131.73 149.614C131.657 149.687 131.557 149.728 131.454 149.728Z" fill="#F2F2F2"/>
<path d="M131.454 158.324H81.8309C81.7795 158.324 81.7285 158.314 81.681 158.295C81.6334 158.275 81.5902 158.247 81.5538 158.21C81.5174 158.174 81.4885 158.131 81.4688 158.083C81.4491 158.036 81.439 157.985 81.439 157.934C81.439 157.882 81.4491 157.831 81.4688 157.784C81.4885 157.736 81.5174 157.693 81.5538 157.657C81.5902 157.621 81.6334 157.592 81.681 157.572C81.7285 157.553 81.7795 157.543 81.8309 157.543H131.454C131.505 157.543 131.556 157.553 131.603 157.572C131.651 157.592 131.694 157.621 131.731 157.657C131.767 157.693 131.796 157.736 131.816 157.784C131.835 157.831 131.845 157.882 131.845 157.934C131.845 157.985 131.835 158.036 131.816 158.083C131.796 158.131 131.767 158.174 131.731 158.21C131.694 158.247 131.651 158.275 131.603 158.295C131.556 158.314 131.505 158.324 131.454 158.324Z" fill="#F2F2F2"/>
<path d="M215.656 118.665H154.311C153.664 118.665 153.139 119.19 153.139 119.837V178.838C153.139 179.485 153.664 180.01 154.311 180.01H215.656C216.303 180.01 216.828 179.485 216.828 178.838V119.837C216.828 119.19 216.303 118.665 215.656 118.665Z" fill="white"/>
<path d="M165.892 151.131C166.102 147.415 167.625 143.895 170.189 141.198C172.754 138.501 176.192 136.802 179.892 136.404C183.593 136.007 187.314 136.936 190.392 139.027C193.471 141.118 195.707 144.234 196.702 147.82C196.892 147.813 197.082 147.805 197.274 147.805C197.929 147.812 198.578 147.922 199.198 148.133C207.009 150.698 204.952 162.36 196.731 162.36H176.526C175.097 162.364 173.682 162.079 172.365 161.523C171.049 160.968 169.858 160.152 168.864 159.125C167.87 158.099 167.094 156.882 166.581 155.548C166.069 154.214 165.831 152.79 165.881 151.362C165.884 151.285 165.888 151.208 165.892 151.131Z" fill="#425D70"/>
<path d="M184.309 150.886V144.459H180.848V150.886H178.085L180.331 154.778L182.578 158.669L184.825 154.778L187.072 150.886H184.309Z" fill="white"/>
</g>
<defs>
<clipPath id="clip0_12_8">
<rect width="256.049" height="245" fill="white" transform="translate(22.9755 27)"/>
</clipPath>
</defs>
</svg>
