<svg width="300" height="300" viewBox="0 0 300 300" fill="none" xmlns="http://www.w3.org/2000/svg">
<rect x="0.521301" width="298.957" height="300" rx="20" fill="#D9D9D9" fill-opacity="0.5"/>
<g clip-path="url(#clip0_12_10)">
<path d="M85.5221 258.974L90.6823 258.387L90.8793 238.206L83.2635 239.071L85.5221 258.974Z" fill="#FFB8B8"/>
<path d="M101.177 262.05L84.9601 263.89L84.2491 257.624L94.2006 256.495C95.8624 256.306 97.531 256.786 98.8394 257.827C100.148 258.869 100.989 260.388 101.177 262.05H101.177Z" fill="#2F2E41"/>
<path d="M32.4543 258.651H37.6475L40.1179 238.619L32.4534 238.62L32.4543 258.651Z" fill="#FFB8B8"/>
<path d="M47.6631 263.472L31.3417 263.473L31.3414 257.167L41.3568 257.167C43.0293 257.167 44.6333 257.831 45.8159 259.014C46.9986 260.196 47.663 261.8 47.6631 263.472Z" fill="#2F2E41"/>
<path d="M69.7142 169.074L72.6794 178.719L88.776 213.552L93.0119 246.592L83.2692 247.016L77.3389 216.517L57.0064 194.49L39.2155 252.099L31.1672 251.252C31.1672 251.252 37.9447 176.699 47.2637 169.074C47.2637 169.074 62.5131 161.873 69.7142 169.074Z" fill="#2F2E41"/>
<path d="M56.5611 127.458C62.307 127.458 66.965 122.8 66.965 117.054C66.965 111.308 62.307 106.65 56.5611 106.65C50.8152 106.65 46.1572 111.308 46.1572 117.054C46.1572 122.8 50.8152 127.458 56.5611 127.458Z" fill="#FFB8B8"/>
<path d="M70.7732 170.981C70.7732 170.981 72.044 127.774 54.253 130.739C36.4621 133.704 43.875 175.428 43.875 175.428C43.875 175.428 47.6873 183.053 57.0064 174.581C66.3255 166.109 70.7732 170.981 70.7732 170.981Z" fill="#CCCCCC"/>
<path opacity="0.2" d="M46.205 148.954L50.3913 165.001L56.7694 171.379L47.8993 168.439L46.205 148.954Z" fill="black"/>
<path d="M70.9047 189.254C70.3193 189.041 69.7875 188.703 69.3469 188.263C68.9062 187.823 68.5674 187.292 68.3543 186.707C68.1412 186.122 68.0589 185.497 68.1134 184.877C68.1678 184.256 68.3576 183.655 68.6694 183.116L58.7747 171.661L66.5749 170.646L74.7752 181.68C75.6461 182.263 76.2725 183.146 76.5359 184.161C76.7992 185.176 76.6811 186.252 76.2041 187.186C75.727 188.119 74.924 188.845 73.9473 189.227C72.9706 189.608 71.888 189.617 70.9047 189.254H70.9047Z" fill="#FFB8B8"/>
<path d="M58.8575 139.54L59.9716 161.45L73.103 178.393L67.5962 182.629L49.8053 164.838C49.8053 164.838 43.4514 143.235 48.1109 136.881C49.8582 134.499 51.7843 133.843 53.5093 133.955C54.9285 134.073 56.2556 134.706 57.2407 135.735C58.2257 136.763 58.8008 138.117 58.8575 139.54Z" fill="#CCCCCC"/>
<path d="M55.3238 127.986C55.3734 127.941 55.4121 127.886 55.4366 127.824C55.461 127.762 55.4707 127.695 55.4648 127.628C55.459 127.562 55.4377 127.498 55.4026 127.441C55.3676 127.384 55.3198 127.336 55.2631 127.301C54.3392 126.729 53.5865 125.918 53.084 124.955C52.5815 123.991 52.3478 122.91 52.4074 121.825C52.4671 120.74 52.8179 119.691 53.4229 118.788C54.028 117.886 54.865 117.163 55.846 116.695C58.9048 115.237 63.0497 116.371 65.3109 113.569C65.7707 112.969 66.0959 112.278 66.2642 111.541C66.4325 110.804 66.44 110.04 66.2862 109.3C65.7983 106.653 63.8085 104.688 61.58 103.341C58.8425 101.686 55.6962 100.831 52.4976 100.872C49.2991 100.914 46.1761 101.85 43.4826 103.576C40.789 105.301 38.6326 107.747 37.2576 110.635C35.8827 113.523 35.3441 116.739 35.703 119.918C35.9907 122.465 36.7768 125.322 35.2619 127.39C33.9288 129.21 31.4123 129.552 29.2017 130.004C24.4604 130.974 19.8862 133.212 16.6686 136.827C13.451 140.443 11.7346 145.515 12.7047 150.256C13.6748 154.997 17.5667 159.164 22.3502 159.899C26.2437 160.497 30.264 158.844 33.1232 156.134C35.9824 153.424 37.7897 149.765 38.9296 145.995C40.2827 141.519 40.8164 136.696 43.2591 132.71C45.6495 128.809 50.8007 126.012 54.838 128.044C54.9154 128.084 55.0032 128.1 55.0899 128.09C55.1766 128.08 55.2581 128.043 55.3238 127.986V127.986Z" fill="#2F2E41"/>
<path d="M135.988 264H5.9449C5.83255 264 5.7248 263.955 5.64536 263.876C5.56592 263.797 5.5213 263.689 5.5213 263.576C5.5213 263.464 5.56592 263.356 5.64536 263.277C5.7248 263.197 5.83255 263.153 5.9449 263.153H135.988C136.101 263.153 136.208 263.197 136.288 263.277C136.367 263.356 136.412 263.464 136.412 263.576C136.412 263.689 136.367 263.797 136.288 263.876C136.208 263.955 136.101 264 135.988 264Z" fill="#3F3D56"/>
<path d="M267.357 119.778C267.334 131.777 262.822 143.333 254.711 152.175C246.599 161.016 235.473 166.503 223.52 167.557C211.568 168.611 199.654 165.156 190.119 157.871C180.585 150.586 174.121 139.998 171.998 128.188C169.875 116.379 172.246 104.202 178.645 94.0525C185.044 83.9026 195.009 76.5137 206.58 73.3384C218.151 70.1631 230.492 71.4311 241.175 76.8931C251.859 82.3551 260.113 91.616 264.314 102.855C264.419 103.137 264.521 103.42 264.621 103.705V103.707C265.064 104.96 265.455 106.236 265.793 107.535C266.835 111.532 267.361 115.647 267.357 119.778Z" fill="#3F3D56"/>
<path d="M213.681 87.1351C211.507 85.9593 209.092 85.2955 206.623 85.1945C204.153 85.0934 201.693 85.5577 199.43 86.552C197.437 87.4192 195.339 88.9748 194.674 91.784C197.362 90.1974 200.843 92.7042 201.534 96.7257L201.373 96.7702C201.008 99.5557 201.823 102.588 203.402 104.315C203.52 103.536 203.809 102.793 204.25 102.139C204.691 101.486 205.271 100.939 205.95 100.538C207.11 99.7749 208.393 99.2209 209.279 97.9098C210.329 96.3556 210.596 94.0841 211.013 92.0119C211.43 89.9397 212.221 87.7125 213.681 87.1351Z" fill="#425D70"/>
<path d="M198.632 110.838C197.888 111.956 196.893 112.658 196.001 113.532C194.97 114.469 194.295 115.732 194.087 117.109C193.974 118.082 194.149 119.071 194.124 120.055C194.1 121.039 193.772 122.146 193.103 122.391C192.047 122.773 191.24 120.811 190.154 120.673C189.292 120.566 188.515 121.923 188.765 123.101C189.015 124.278 190.189 124.799 190.864 124.031C191.474 125.055 191.044 126.912 190.127 127.227C190.031 127.872 189.934 128.514 189.84 129.159C187.523 127.538 185.182 125.891 183.211 123.517C181.02 120.9 179.661 117.688 179.309 114.292C179.053 111.564 179.432 108.443 178.18 106.344C177.177 104.664 175.457 104.293 173.908 104.398C173.626 104.417 173.341 104.449 173.059 104.484C173.972 101.742 175.132 99.0877 176.524 96.5546C176.839 96.4193 177.132 96.2372 177.392 96.0143C178.833 94.7913 179.472 92.3157 180.642 90.6035C180.717 90.4933 180.795 90.3857 180.876 90.2809C182.072 88.7192 183.674 87.9155 185.222 87.1683C188.649 85.5045 192.176 83.8191 195.794 84.0503L194.764 84.1497C193.563 87.515 192.36 90.8803 191.157 94.2457C190.974 94.7617 190.79 95.2787 190.603 95.7966C189.92 97.7104 189.216 99.7478 189.321 101.89C189.383 103.159 189.824 104.514 190.662 104.949C191.444 105.352 192.299 104.858 193.055 104.368C193.374 104.164 193.692 103.96 194.011 103.753C195.159 103.014 196.431 102.256 197.643 102.75C198.753 103.202 199.573 104.71 199.729 106.336C199.872 107.917 199.486 109.5 198.632 110.838Z" fill="#425D70"/>
<path d="M205.458 133.814C202.106 131.75 198.754 129.686 195.402 127.622L195.459 127.476C193.375 128.27 192.509 131.974 192.854 135.004C193.198 138.034 194.366 140.742 194.956 143.694C195.752 147.734 195.451 151.913 194.087 155.798C198.494 150.852 202.395 145.477 205.731 139.752C206.197 139.031 206.552 138.244 206.784 137.417C207.03 136.536 206.942 135.595 206.538 134.774C206.263 134.37 205.892 134.039 205.458 133.814Z" fill="#425D70"/>
<path d="M192.229 96.2648C191.835 97.11 191.774 98.0725 192.059 98.9604C192.389 99.6757 192.99 100.231 193.728 100.506L195.58 101.425C196.196 101.73 196.861 102.038 197.489 101.787C198.246 101.484 198.772 100.296 198.636 99.1936C198.491 98.0202 197.752 97.2131 197.068 96.5258C196.11 95.5639 195.153 94.602 194.196 93.6401L193.656 94.3009C193.073 94.8701 192.59 95.5341 192.229 96.2648Z" fill="#425D70"/>
<path d="M257.428 108.809C258.261 109.005 259.095 109.201 259.928 109.398C259.783 112.212 258.388 114.817 256.517 115.76C255.737 116.152 254.869 116.298 254.224 117.031C253.641 117.698 253.345 118.735 253.074 119.727C252.598 121.458 252.122 123.189 251.646 124.92C251.136 126.786 250.48 128.858 249.152 129.53C248.012 130.108 246.708 129.401 245.832 128.216C244.956 127.03 244.421 125.437 243.902 123.883C243.935 125.576 243.147 127.237 242.032 127.826C240.913 128.415 239.553 127.883 238.806 126.568C238.268 125.625 238.045 124.38 237.518 123.423C236.992 122.466 235.887 121.918 235.312 122.816C234.933 123.413 234.981 124.326 234.793 125.084C234.698 125.588 234.449 126.049 234.08 126.404C233.711 126.759 233.24 126.99 232.734 127.065C232.268 127.055 231.809 126.949 231.386 126.756C230.962 126.562 230.582 126.284 230.269 125.939C228.623 124.255 227.552 122.094 227.208 119.765C226.974 118.648 227.004 117.492 227.294 116.389C227.624 115.343 228.422 114.537 229.215 114.736C229.737 113.634 228.707 112.172 227.78 112.301C226.85 112.43 226.122 113.427 225.358 114.193C224.598 114.959 223.533 115.515 222.767 114.755C222.784 115.033 222.69 115.307 222.505 115.515C222.321 115.724 222.061 115.851 221.783 115.868C221.755 115.87 221.728 115.871 221.7 115.87C221.191 115.724 220.717 115.473 220.31 115.134C218.555 114.04 216.327 114.765 215.08 116.835C215.859 113.518 217.001 109.712 219.396 108.933C220.375 108.613 221.442 108.876 222.367 108.322C224.004 107.341 224.334 103.635 222.92 102.105C223.1 103.551 223.065 105.239 222.302 106.229C221.539 107.218 219.937 106.573 220.033 105.11C220.012 105.316 219.925 105.51 219.787 105.663C219.649 105.817 219.465 105.923 219.263 105.966C219.061 106.009 218.85 105.986 218.661 105.902C218.472 105.818 218.315 105.676 218.211 105.497C217.703 104.723 217.746 103.457 218.106 102.533C218.478 101.695 219.01 100.939 219.673 100.307C220.95 98.9389 222.246 97.5546 223.724 96.6944C225.205 95.8343 226.915 95.544 228.398 96.3988C229.181 96.8503 229.869 97.603 230.667 98.0008C230.855 98.1172 231.063 98.1955 231.281 98.2313C231.499 98.267 231.722 98.2595 231.937 98.2092C232.152 98.1588 232.355 98.0666 232.534 97.9379C232.713 97.8091 232.865 97.6463 232.982 97.4587L232.982 97.4587C232.991 97.4442 233 97.4296 233.008 97.4148C233.602 96.3719 233.323 94.8236 233.543 93.52C233.938 91.2165 236.242 90.1386 237.519 91.6599C236.564 91.4154 235.578 92.5443 235.46 93.9125C235.339 95.2806 236.029 96.6622 236.954 97.0761C238.508 97.7642 240.029 96.0332 241.204 94.4312C242.429 92.7539 243.657 91.0776 244.886 89.4021C245.082 89.1168 245.303 88.8488 245.545 88.6011C245.93 88.2258 246.443 88.0109 246.98 88C247.518 87.989 248.04 88.1827 248.44 88.542C249.681 89.5553 250.265 91.6331 251.283 93.0631C252.762 95.1408 254.974 95.6462 257.033 96.0494C258.568 96.3477 260.103 96.6479 261.64 96.9498C262.664 98.8554 263.558 100.828 264.315 102.855C261.497 104.14 259.107 106.206 257.428 108.809Z" fill="#425D70"/>
<path d="M262.39 141.15C261.238 143.488 259.899 145.729 258.385 147.851C257.417 147.437 256.377 148.176 255.471 148.87C254.525 149.596 253.388 150.303 252.418 149.641C251.426 148.964 251.106 147.069 251.42 145.566C251.782 144.18 252.414 142.879 253.28 141.739C254.087 140.535 254.95 139.285 256.071 138.817C257.194 138.349 258.638 139.01 258.965 140.607L259.761 140.58C259.315 139.967 259.549 138.699 260.148 138.476C260.839 138.215 261.438 139.164 261.847 140.002C262.03 140.381 262.215 140.763 262.39 141.15Z" fill="#425D70"/>
<path d="M231.918 129.797C230.208 129.904 228.853 127.799 227.953 125.728C227.053 123.657 226.232 121.288 224.688 120.234C223.807 119.632 222.802 119.549 221.845 119.257C221.303 119.12 220.801 118.856 220.381 118.486C219.961 118.116 219.635 117.652 219.431 117.131L218.346 116.693C216.828 117.451 215.439 118.442 214.227 119.63C212.842 121.1 211.98 122.986 211.773 124.995C211.566 127.167 212.331 129.588 213.761 130.403C214.89 131.048 216.206 130.642 217.35 131.232C218.78 131.969 219.629 134.11 219.95 136.225C220.272 138.339 220.19 140.537 220.42 142.675C220.65 144.814 221.284 147.039 222.595 148.135C224.236 149.506 226.644 148.367 227.38 145.87C227.741 144.646 227.728 143.264 227.998 141.993C228.474 139.754 229.758 138.094 230.776 136.258C231.794 134.421 232.595 131.928 231.918 129.797Z" fill="#425D70"/>
<path d="M215.019 107.801C215.179 107.948 215.327 108.106 215.464 108.274C215.606 108.518 215.679 108.797 215.674 109.079C215.669 109.362 215.587 109.638 215.437 109.877C215.643 109.866 215.844 109.811 216.028 109.718C216.212 109.624 216.375 109.494 216.506 109.334C216.818 108.979 217.092 108.592 217.325 108.18C217.434 108.039 217.513 107.876 217.554 107.703C217.596 107.529 217.6 107.349 217.567 107.173C217.486 106.943 217.295 106.844 217.161 106.671C216.975 106.332 216.848 105.964 216.786 105.582C216.712 105.225 216.539 104.895 216.288 104.63C216.037 104.365 215.716 104.176 215.363 104.083L215.449 104.099C215.303 104.186 215.188 104.316 215.12 104.471C215.051 104.627 215.033 104.799 215.068 104.965C215.12 105.301 215.336 105.579 215.314 105.921C215.283 106.413 214.792 106.644 214.761 107.136C214.757 107.383 214.849 107.622 215.019 107.801Z" fill="#425D70"/>
<path d="M212.089 99.4412L212.097 99.4398C212.149 99.3918 212.198 99.3398 212.243 99.2843L212.089 99.4412Z" fill="#6C63FF"/>
<path d="M212.602 101.75C212.807 101.57 212.959 101.337 213.041 101.076C213.123 100.815 213.132 100.537 213.066 100.272C212.942 99.7125 212.502 99.3364 212.097 99.4397C211.979 99.559 211.833 99.6464 211.672 99.6937C211.512 99.741 211.341 99.7467 211.178 99.7102C210.927 99.6456 210.652 99.4794 210.434 99.6683C210.31 99.8094 210.223 99.9794 210.181 100.163C210.101 100.41 210.02 100.657 209.94 100.904C209.901 100.993 209.891 101.091 209.911 101.185C209.926 101.223 209.951 101.256 209.983 101.281C210.015 101.307 210.053 101.324 210.094 101.33L211.542 101.757C211.709 101.834 211.89 101.873 212.073 101.872C212.256 101.87 212.437 101.829 212.602 101.75Z" fill="#6C63FF"/>
<path d="M249.062 133.629C248.838 133.263 248.615 132.898 248.392 132.532C248.173 132.109 247.873 131.733 247.509 131.424C247.35 131.291 247.145 131.226 246.938 131.245C246.732 131.263 246.541 131.363 246.408 131.522L246.408 131.522L246.396 131.536L246.423 131.745C247.021 132.385 247.428 133.18 247.599 134.04C247.65 134.413 247.633 134.8 247.677 135.175C247.682 135.349 247.721 135.52 247.792 135.679C247.863 135.838 247.965 135.981 248.091 136.101C248.442 136.336 248.855 135.99 249.105 135.567C249.329 135.22 249.429 134.808 249.39 134.397C249.334 134.121 249.223 133.86 249.062 133.629Z" fill="#6C63FF"/>
<path d="M252.564 134.105C252.606 133.762 252.578 133.415 252.482 133.084C252.466 132.636 252.585 132.194 252.823 131.814C253.059 131.456 253.238 131.063 253.354 130.65C253.403 130.461 253.394 130.263 253.328 130.079C253.255 129.913 253.076 129.838 252.973 129.969L253.193 130.111C252.896 130.058 252.591 130.072 252.301 130.154C252.135 130.217 251.988 130.319 251.87 130.452C251.752 130.585 251.668 130.744 251.625 130.915C251.589 131.183 251.53 131.448 251.448 131.706C251.317 131.975 251.063 132.065 250.904 132.301C250.795 132.511 250.74 132.744 250.744 132.98C250.748 133.216 250.811 133.448 250.926 133.654C251.126 133.99 251.445 134.241 251.819 134.356C252.088 134.452 252.441 134.457 252.564 134.105Z" fill="#6C63FF"/>
<path d="M258.8 135.986C258.897 136.239 259.027 136.477 259.187 136.696C259.485 136.996 259.891 136.811 260.253 136.738C260.582 136.686 260.919 136.724 261.227 136.848C261.536 136.972 261.806 137.177 262.007 137.442C261.867 136.741 261.56 136.085 261.114 135.527C260.667 134.97 260.093 134.528 259.439 134.238C258.591 133.944 257.696 133.804 256.798 133.825L256.645 133.864C257.036 135.002 258.263 134.977 258.8 135.986Z" fill="#6C63FF"/>
<path d="M232.386 138.314L232.388 138.319L232.433 138.232L232.386 138.314Z" fill="#6C63FF"/>
<path d="M231.44 140.145C231.233 140.519 231.056 140.909 230.909 141.311C230.714 141.961 230.585 142.63 230.524 143.306C230.476 143.69 230.461 144.181 230.702 144.369C230.771 144.415 230.855 144.434 230.937 144.423C231.019 144.412 231.095 144.371 231.149 144.308C231.283 144.166 231.392 144.004 231.473 143.826C231.947 143.011 232.314 142.138 232.567 141.23C232.831 140.266 232.768 139.242 232.388 138.318C232.072 138.927 231.756 139.536 231.44 140.145Z" fill="#6C63FF"/>
<path d="M222.312 91.3544C222.463 91.5013 222.653 91.601 222.859 91.6413C223.065 91.6815 223.279 91.6606 223.473 91.581C223.876 91.4049 224.245 91.1608 224.565 90.8595C224.83 90.6634 225.055 90.4182 225.228 90.1372C225.323 89.9692 225.383 89.7842 225.407 89.5927C225.43 89.4012 225.415 89.207 225.363 89.0212C225.289 88.8432 225.171 88.6871 225.02 88.5675C224.868 88.4479 224.689 88.3688 224.499 88.3378C223.963 88.1788 223.427 88.0198 222.891 87.8609L223.279 87.5114C222.88 87.2973 222.438 87.6947 222.189 88.1867C222.029 88.5079 221.918 88.8511 221.858 89.205C221.773 89.5747 221.77 89.9586 221.848 90.3297C221.927 90.7009 222.085 91.0506 222.312 91.3544Z" fill="#6C63FF"/>
<path d="M231.776 88.1771C231.928 88.3437 232.136 88.4465 232.361 88.4647C232.585 88.483 232.807 88.4152 232.983 88.2753C233.135 88.1615 233.261 88.0171 233.353 87.8514C233.445 87.6857 233.501 87.5025 233.517 87.3138C233.555 86.8921 233.347 86.4235 233.049 86.387L233.117 85.9922C232.543 85.8886 231.838 85.8679 231.53 86.5645C231.427 86.8313 231.395 87.1207 231.438 87.4037C231.481 87.6867 231.598 87.9534 231.776 88.1771Z" fill="#6C63FF"/>
<path d="M192.78 116.577C194.756 116.577 196.359 114.428 196.359 111.778C196.359 109.128 194.756 106.98 192.78 106.98C190.804 106.98 189.202 109.128 189.202 111.778C189.202 114.428 190.804 116.577 192.78 116.577Z" fill="#E6E6E6"/>
<path d="M258.17 175.992C259.878 175.537 261.007 174.205 260.69 173.016C260.374 171.828 258.732 171.234 257.024 171.688C255.316 172.143 254.187 173.476 254.504 174.664C254.82 175.852 256.462 176.447 258.17 175.992Z" fill="#E6E6E6"/>
<path d="M237.247 176.379C238.955 175.924 240.084 174.592 239.767 173.403C239.451 172.215 237.809 171.62 236.101 172.075C234.393 172.53 233.264 173.863 233.581 175.051C233.897 176.239 235.539 176.834 237.247 176.379Z" fill="#E6E6E6"/>
<path d="M261.887 158.584C263.596 158.129 264.724 156.796 264.407 155.608C264.091 154.42 262.449 153.825 260.741 154.28C259.033 154.735 257.905 156.067 258.221 157.256C258.537 158.444 260.179 159.038 261.887 158.584Z" fill="#E6E6E6"/>
<path d="M268.058 151.183C268.83 151.088 269.344 150.111 269.206 149.003C269.069 147.894 268.332 147.073 267.561 147.168C266.789 147.264 266.276 148.24 266.413 149.349C266.55 150.458 267.287 151.279 268.058 151.183Z" fill="#E6E6E6"/>
<path d="M269.621 138.05C270.392 137.954 270.906 136.978 270.769 135.869C270.631 134.76 269.894 133.939 269.123 134.034C268.352 134.13 267.838 135.106 267.975 136.215C268.113 137.324 268.85 138.145 269.621 138.05Z" fill="#E6E6E6"/>
<path d="M248.529 163.298C249.301 163.202 249.814 162.226 249.677 161.117C249.539 160.008 248.803 159.187 248.031 159.282C247.26 159.378 246.746 160.354 246.884 161.463C247.021 162.572 247.758 163.393 248.529 163.298Z" fill="#E6E6E6"/>
<path d="M259.108 167.127C259.879 167.031 260.393 166.055 260.255 164.946C260.118 163.837 259.381 163.016 258.61 163.111C257.839 163.207 257.325 164.183 257.462 165.292C257.6 166.401 258.336 167.222 259.108 167.127Z" fill="#E6E6E6"/>
<path d="M246.263 177.971C247.035 177.876 247.549 176.899 247.411 175.791C247.274 174.682 246.537 173.861 245.766 173.956C244.994 174.052 244.48 175.028 244.618 176.137C244.755 177.246 245.492 178.067 246.263 177.971Z" fill="#E6E6E6"/>
<path d="M154.165 158.421C155.874 157.966 157.002 156.633 156.685 155.445C156.369 154.257 154.728 153.662 153.019 154.117C151.311 154.572 150.183 155.904 150.499 157.093C150.816 158.281 152.457 158.875 154.165 158.421Z" fill="#E6E6E6"/>
<path d="M133.241 158.808C134.949 158.353 136.078 157.021 135.761 155.833C135.445 154.644 133.803 154.05 132.095 154.505C130.387 154.96 129.259 156.292 129.575 157.48C129.891 158.669 131.533 159.263 133.241 158.808Z" fill="#E6E6E6"/>
<path d="M157.883 141.012C159.591 140.557 160.72 139.224 160.403 138.036C160.087 136.848 158.445 136.253 156.737 136.708C155.029 137.163 153.9 138.495 154.217 139.684C154.533 140.872 156.175 141.467 157.883 141.012Z" fill="#E6E6E6"/>
<path d="M164.054 133.612C164.825 133.516 165.339 132.54 165.202 131.431C165.064 130.323 164.327 129.501 163.556 129.597C162.785 129.692 162.271 130.669 162.408 131.778C162.546 132.886 163.283 133.708 164.054 133.612Z" fill="#E6E6E6"/>
<path d="M165.616 120.478C166.387 120.383 166.901 119.406 166.764 118.298C166.626 117.189 165.89 116.368 165.118 116.463C164.347 116.559 163.833 117.535 163.971 118.644C164.108 119.753 164.845 120.574 165.616 120.478Z" fill="#E6E6E6"/>
<path d="M144.524 145.726C145.296 145.631 145.81 144.654 145.672 143.545C145.535 142.437 144.798 141.615 144.027 141.711C143.255 141.807 142.741 142.783 142.879 143.892C143.016 145 143.753 145.822 144.524 145.726Z" fill="#E6E6E6"/>
<path d="M155.103 149.555C155.874 149.459 156.388 148.483 156.251 147.374C156.113 146.266 155.376 145.444 154.605 145.54C153.834 145.635 153.32 146.612 153.457 147.721C153.595 148.829 154.332 149.651 155.103 149.555Z" fill="#E6E6E6"/>
<path d="M142.259 160.4C143.03 160.305 143.544 159.328 143.406 158.219C143.269 157.111 142.532 156.289 141.761 156.385C140.989 156.481 140.476 157.457 140.613 158.566C140.751 159.675 141.487 160.496 142.259 160.4Z" fill="#E6E6E6"/>
<path d="M281.288 77.9651C282.997 77.5102 284.125 76.178 283.808 74.9896C283.492 73.8012 281.851 73.2066 280.142 73.6616C278.434 74.1165 277.306 75.4487 277.622 76.6371C277.939 77.8255 279.58 78.42 281.288 77.9651Z" fill="#E6E6E6"/>
<path d="M260.364 78.3527C262.073 77.8977 263.201 76.5655 262.884 75.3771C262.568 74.1888 260.926 73.5942 259.218 74.0492C257.51 74.5041 256.382 75.8363 256.698 77.0247C257.015 78.213 258.656 78.8076 260.364 78.3527Z" fill="#E6E6E6"/>
<path d="M285.006 60.5555C286.714 60.1006 287.843 58.7684 287.526 57.58C287.21 56.3916 285.568 55.7971 283.86 56.252C282.152 56.707 281.023 58.0392 281.34 59.2276C281.656 60.4159 283.298 61.0105 285.006 60.5555Z" fill="#E6E6E6"/>
<path d="M291.177 53.1566C291.948 53.0609 292.462 52.0846 292.324 50.9758C292.187 49.867 291.45 49.0457 290.679 49.1413C289.908 49.2369 289.394 50.2133 289.531 51.3221C289.669 52.4309 290.405 53.2522 291.177 53.1566Z" fill="#E6E6E6"/>
<path d="M292.739 40.0228C293.511 39.9271 294.024 38.9508 293.887 37.842C293.749 36.7332 293.013 35.9119 292.241 36.0075C291.47 36.1031 290.956 37.0795 291.094 38.1883C291.231 39.2971 291.968 40.1184 292.739 40.0228Z" fill="#E6E6E6"/>
<path d="M271.647 65.2706C272.419 65.1749 272.933 64.1986 272.795 63.0898C272.658 61.981 271.921 61.1597 271.15 61.2553C270.378 61.3509 269.864 62.3273 270.002 63.4361C270.139 64.5449 270.876 65.3662 271.647 65.2706Z" fill="#E6E6E6"/>
<path d="M282.226 69.0997C282.997 69.004 283.511 68.0277 283.374 66.9189C283.236 65.8101 282.499 64.9888 281.728 65.0844C280.957 65.18 280.443 66.1564 280.58 67.2652C280.718 68.374 281.455 69.1953 282.226 69.0997Z" fill="#E6E6E6"/>
<path d="M269.382 79.9446C270.153 79.849 270.667 78.8726 270.529 77.7638C270.392 76.6551 269.655 75.8337 268.884 75.9294C268.112 76.025 267.599 77.0014 267.736 78.1102C267.873 79.2189 268.61 80.0403 269.382 79.9446Z" fill="#E6E6E6"/>
<path d="M147.878 161.397C144.455 161.397 142.23 160.547 141.244 158.856C139.302 155.521 142.555 149.67 150.914 141.465L151.616 142.18C143.852 149.802 140.476 155.545 142.11 158.351C143.145 160.126 146.223 160.762 151.014 160.19C155.77 159.622 162.073 157.93 169.748 155.16C185.549 149.458 205.372 139.839 225.566 128.076C245.76 116.312 263.906 103.814 276.661 92.8819C279.111 90.7818 281.334 88.7615 283.27 86.8776C285.81 84.4647 288.153 81.8529 290.278 79.0669C293.139 75.1822 294.104 72.1905 293.07 70.4152C291.343 67.4502 284.087 67.729 272.637 71.2014L272.346 70.2422C284.63 66.5172 291.894 66.4054 293.936 69.9108C295.205 72.0887 294.246 75.3693 291.085 79.6614C288.928 82.4915 286.548 85.1447 283.969 87.5957C282.019 89.4945 279.779 91.529 277.313 93.643C264.514 104.613 246.315 117.149 226.071 128.942C205.826 140.735 185.944 150.381 170.089 156.103C162.342 158.899 155.964 160.609 151.133 161.185C150.053 161.32 148.966 161.391 147.878 161.397Z" fill="#3F3D56"/>
</g>
<defs>
<clipPath id="clip0_12_10">
<rect width="288.957" height="228" fill="white" transform="translate(5.5213 36)"/>
</clipPath>
</defs>
</svg>
