<svg width="302" height="277" viewBox="0 0 302 277" fill="none" xmlns="http://www.w3.org/2000/svg">
<rect x="0.888489" width="300.223" height="277" rx="20" fill="#D9D9D9" fill-opacity="0.5"/>
<g clip-path="url(#clip0_12_2)">
<path d="M263.111 176.349C263.116 177.253 262.762 178.122 262.126 178.765C261.49 179.407 260.624 179.771 259.72 179.776H110.508C110.06 179.773 109.617 179.683 109.205 179.509C108.792 179.336 108.417 179.083 108.102 178.765C107.787 178.446 107.538 178.069 107.369 177.655C107.2 177.24 107.114 176.796 107.116 176.349V74.427C107.112 73.5228 107.466 72.6538 108.102 72.0111C108.738 71.3684 109.604 71.0047 110.508 71H259.72C260.168 71.0023 260.611 71.0928 261.023 71.2663C261.436 71.4398 261.811 71.6928 262.125 72.011C262.44 72.3293 262.69 72.7064 262.859 73.1209C263.028 73.5354 263.114 73.9792 263.111 74.4269V74.427V176.349Z" fill="white"/>
<path d="M261.351 174.68C261.351 175.559 261.002 176.401 260.381 177.023C259.759 177.644 258.916 177.993 258.038 177.993H112.292C111.414 177.993 110.571 177.644 109.949 177.023C109.328 176.401 108.979 175.559 108.979 174.68V76.1427C108.979 75.2639 109.328 74.4211 109.949 73.7996C110.571 73.1782 111.414 72.8291 112.292 72.8291H258.044C258.922 72.8309 259.763 73.1808 260.383 73.802C261.003 74.4232 261.351 75.265 261.351 76.1427V174.68Z" fill="#425D70"/>
<path d="M116.768 77.1072H253.717C254.239 77.1072 254.739 77.3144 255.108 77.6832C255.477 78.0521 255.684 78.5524 255.684 79.074V171.366C255.684 171.888 255.477 172.388 255.108 172.757C254.739 173.126 254.239 173.333 253.717 173.333H116.768C116.247 173.333 115.746 173.126 115.378 172.757C115.009 172.388 114.801 171.888 114.801 171.366V79.074C114.801 78.5524 115.009 78.0521 115.378 77.6832C115.746 77.3144 116.247 77.1072 116.768 77.1072Z" fill="white"/>
<path d="M118.502 79.3206H251.835C252.357 79.3206 252.857 79.5278 253.226 79.8966C253.595 80.2655 253.802 80.7658 253.802 81.2874V168.655C253.802 169.176 253.595 169.676 253.226 170.045C252.857 170.414 252.357 170.621 251.835 170.621H118.502C117.98 170.621 117.48 170.414 117.111 170.045C116.742 169.676 116.535 169.176 116.535 168.655V81.2874C116.535 80.7658 116.742 80.2655 117.111 79.8966C117.48 79.5278 117.98 79.3206 118.502 79.3206Z" fill="#425D70"/>
<path d="M212.644 140.013C212.119 140.013 211.6 139.902 211.121 139.688C211.01 139.639 210.903 139.578 210.804 139.508L201.113 132.687C200.622 132.341 200.221 131.882 199.944 131.349C199.667 130.815 199.523 130.223 199.522 129.622V120.32C199.523 119.719 199.667 119.127 199.944 118.593C200.221 118.06 200.622 117.601 201.113 117.255L210.804 110.434C210.903 110.364 211.01 110.303 211.121 110.254C211.692 110 212.317 109.893 212.94 109.942C213.562 109.991 214.163 110.195 214.687 110.536C215.211 110.876 215.641 111.342 215.939 111.891C216.237 112.44 216.393 113.055 216.393 113.679V136.263C216.393 137.257 215.998 138.211 215.295 138.914C214.592 139.617 213.638 140.012 212.644 140.012L212.644 140.013Z" fill="white"/>
<path d="M190.958 141.842H163.932C158.418 141.837 153.949 138.273 153.944 133.875V116.067C153.949 111.669 158.418 108.105 163.932 108.1H191.028C196.503 108.106 200.939 111.644 200.946 116.011V133.875C200.94 138.273 196.472 141.837 190.958 141.842Z" fill="white"/>
<path d="M239.1 165.003C243.54 165.003 247.138 161.405 247.138 156.966C247.138 152.526 243.54 148.928 239.1 148.928C234.661 148.928 231.063 152.526 231.063 156.966C231.063 161.405 234.661 165.003 239.1 165.003Z" fill="white"/>
<path d="M243.275 156.821L236.868 153.122C236.843 153.108 236.814 153.1 236.785 153.1C236.756 153.1 236.727 153.108 236.702 153.122C236.677 153.137 236.656 153.158 236.641 153.183C236.626 153.209 236.619 153.237 236.619 153.266V160.665C236.619 160.694 236.626 160.723 236.641 160.748C236.656 160.773 236.677 160.794 236.702 160.809C236.727 160.823 236.756 160.831 236.785 160.831C236.814 160.831 236.843 160.823 236.868 160.809L243.275 157.11C243.301 157.095 243.322 157.074 243.336 157.049C243.351 157.023 243.358 156.995 243.358 156.966C243.358 156.936 243.351 156.908 243.336 156.882C243.322 156.857 243.301 156.836 243.275 156.821L236.868 153.122C236.843 153.108 236.814 153.1 236.785 153.1C236.756 153.1 236.727 153.108 236.702 153.122C236.677 153.137 236.656 153.158 236.641 153.183C236.626 153.209 236.619 153.237 236.619 153.266V160.665C236.619 160.694 236.626 160.723 236.641 160.748C236.656 160.773 236.677 160.794 236.702 160.809C236.727 160.823 236.756 160.831 236.785 160.831C236.814 160.831 236.843 160.823 236.868 160.809L243.275 157.11C243.301 157.095 243.322 157.074 243.336 157.049C243.351 157.023 243.358 156.995 243.358 156.966C243.358 156.936 243.351 156.908 243.336 156.882C243.322 156.857 243.301 156.836 243.275 156.821Z" fill="#425D70"/>
<path d="M228.664 188.572C228.669 189.476 228.314 190.345 227.678 190.988C227.042 191.63 226.177 191.994 225.273 191.999H76.0605C75.6128 191.996 75.17 191.906 74.7572 191.732C74.3445 191.559 73.97 191.306 73.6551 190.988C73.3402 190.67 73.091 190.292 72.9218 189.878C72.7527 189.463 72.6668 189.02 72.6691 188.572V86.6501C72.6644 85.7459 73.019 84.8769 73.655 84.2343C74.291 83.5916 75.1563 83.2279 76.0604 83.2231H225.273C225.72 83.2255 226.163 83.316 226.576 83.4894C226.989 83.6629 227.363 83.916 227.678 84.2342C227.993 84.5524 228.242 84.9295 228.411 85.344C228.581 85.7585 228.667 86.2023 228.664 86.65V86.6501V188.572Z" fill="white"/>
<path d="M226.904 186.903C226.904 187.782 226.555 188.625 225.933 189.246C225.312 189.867 224.469 190.216 223.59 190.216H77.8451C76.9663 190.216 76.1235 189.867 75.502 189.246C74.8806 188.625 74.5315 187.782 74.5315 186.903V88.3658C74.5315 87.487 74.8806 86.6442 75.502 86.0228C76.1235 85.4014 76.9663 85.0522 77.8451 85.0522H223.597C224.475 85.054 225.316 85.4039 225.936 86.0251C226.556 86.6464 226.904 87.4882 226.904 88.3658V186.903Z" fill="#425D70"/>
<path d="M82.321 89.3303H219.27C219.792 89.3303 220.292 89.5375 220.661 89.9064C221.03 90.2752 221.237 90.7755 221.237 91.2972V183.589C221.237 184.111 221.03 184.611 220.661 184.98C220.292 185.349 219.792 185.556 219.27 185.556H82.321C81.7994 185.556 81.2991 185.349 80.9303 184.98C80.5614 184.611 80.3542 184.111 80.3542 183.589V91.2972C80.3542 90.7755 80.5614 90.2752 80.9303 89.9064C81.2991 89.5375 81.7994 89.3303 82.321 89.3303Z" fill="white"/>
<path d="M84.0545 91.5439H217.388C217.909 91.5439 218.41 91.7512 218.778 92.12C219.147 92.4889 219.354 92.9891 219.354 93.5108V180.878C219.354 181.4 219.147 181.9 218.778 182.269C218.41 182.638 217.909 182.845 217.388 182.845H84.0545C83.5328 182.845 83.0326 182.638 82.6637 182.269C82.2949 181.9 82.0876 181.4 82.0876 180.878V93.5108C82.0876 92.9891 82.2949 92.4889 82.6637 92.12C83.0326 91.7512 83.5328 91.5439 84.0545 91.5439Z" fill="#425D70"/>
<path d="M178.197 152.236C177.672 152.236 177.153 152.125 176.674 151.912C176.562 151.862 176.456 151.802 176.356 151.731L166.666 144.91C166.175 144.565 165.774 144.106 165.497 143.572C165.22 143.039 165.075 142.447 165.075 141.846V132.543C165.075 131.942 165.22 131.35 165.497 130.817C165.774 130.283 166.175 129.824 166.666 129.478L176.356 122.658C176.456 122.587 176.562 122.527 176.674 122.477C177.245 122.223 177.87 122.116 178.492 122.165C179.115 122.215 179.716 122.419 180.24 122.759C180.763 123.1 181.194 123.565 181.492 124.114C181.79 124.663 181.946 125.278 181.946 125.903V148.486C181.946 149.48 181.551 150.434 180.848 151.137C180.145 151.84 179.191 152.235 178.197 152.235L178.197 152.236Z" fill="white"/>
<path d="M156.51 154.065H129.484C123.97 154.061 119.502 150.496 119.496 146.098V128.29C119.502 123.892 123.97 120.328 129.484 120.324H156.581C162.055 120.329 166.492 123.868 166.498 128.234V146.098C166.493 150.496 162.024 154.061 156.51 154.065Z" fill="white"/>
<path d="M204.653 177.227C209.092 177.227 212.691 173.628 212.691 169.189C212.691 164.75 209.092 161.151 204.653 161.151C200.214 161.151 196.615 164.75 196.615 169.189C196.615 173.628 200.214 177.227 204.653 177.227Z" fill="white"/>
<path d="M208.828 169.045L202.421 165.346C202.396 165.331 202.367 165.323 202.338 165.323C202.309 165.323 202.28 165.331 202.255 165.346C202.229 165.36 202.208 165.381 202.194 165.407C202.179 165.432 202.171 165.461 202.171 165.49V172.888C202.171 172.917 202.179 172.946 202.194 172.971C202.208 172.996 202.229 173.017 202.255 173.032C202.28 173.047 202.309 173.054 202.338 173.054C202.367 173.054 202.396 173.047 202.421 173.032L208.828 169.333C208.853 169.318 208.874 169.297 208.889 169.272C208.903 169.247 208.911 169.218 208.911 169.189C208.911 169.16 208.903 169.131 208.889 169.106C208.874 169.08 208.853 169.059 208.828 169.045L202.421 165.346C202.396 165.331 202.367 165.323 202.338 165.323C202.309 165.323 202.28 165.331 202.255 165.346C202.229 165.36 202.208 165.381 202.194 165.407C202.179 165.432 202.171 165.461 202.171 165.49V172.888C202.171 172.917 202.179 172.946 202.194 172.971C202.208 172.996 202.229 173.017 202.255 173.032C202.28 173.047 202.309 173.054 202.338 173.054C202.367 173.054 202.396 173.047 202.421 173.032L208.828 169.333C208.853 169.318 208.874 169.297 208.889 169.272C208.903 169.247 208.911 169.218 208.911 169.189C208.911 169.16 208.903 169.131 208.889 169.106C208.874 169.08 208.853 169.059 208.828 169.045Z" fill="#425D70"/>
<path d="M194.884 202.573C194.888 203.477 194.534 204.346 193.898 204.989C193.262 205.632 192.396 205.995 191.492 206H42.2799C41.8322 205.998 41.3894 205.907 40.9767 205.734C40.5639 205.56 40.1894 205.307 39.8745 204.989C39.5596 204.671 39.3104 204.294 39.1413 203.879C38.9721 203.465 38.8862 203.021 38.8885 202.573V100.651C38.8838 99.7472 39.2384 98.8782 39.8744 98.2355C40.5104 97.5928 41.3757 97.2291 42.2798 97.2244H191.492C191.94 97.2267 192.383 97.3172 192.795 97.4907C193.208 97.6641 193.583 97.9172 193.898 98.2354C194.213 98.5536 194.462 98.9308 194.631 99.3453C194.8 99.7598 194.886 100.204 194.884 100.651V100.651V202.573Z" fill="white"/>
<path d="M193.123 200.904C193.123 201.783 192.774 202.626 192.153 203.247C191.531 203.869 190.689 204.218 189.81 204.218H44.0645C43.1857 204.218 42.3429 203.869 41.7214 203.247C41.1 202.626 40.7509 201.783 40.7509 200.904V102.367C40.7509 101.488 41.1 100.645 41.7214 100.024C42.3429 99.4026 43.1857 99.0535 44.0645 99.0535H189.816C190.694 99.0552 191.535 99.4051 192.155 100.026C192.775 100.648 193.123 101.489 193.123 102.367V200.904Z" fill="#425D70"/>
<path d="M48.5405 103.332H185.49C186.011 103.332 186.511 103.539 186.88 103.908C187.249 104.276 187.456 104.777 187.456 105.298V197.59C187.456 198.112 187.249 198.612 186.88 198.981C186.511 199.35 186.011 199.557 185.49 199.557H48.5405C48.0188 199.557 47.5186 199.35 47.1497 198.981C46.7809 198.612 46.5736 198.112 46.5736 197.59V105.298C46.5736 104.777 46.7809 104.276 47.1497 103.908C47.5186 103.539 48.0188 103.332 48.5405 103.332Z" fill="white"/>
<path d="M50.2739 105.545H183.607C183.865 105.545 184.121 105.596 184.36 105.695C184.598 105.794 184.815 105.939 184.998 106.121C185.181 106.304 185.325 106.521 185.424 106.759C185.523 106.998 185.574 107.254 185.574 107.512V194.879C185.574 195.137 185.523 195.393 185.424 195.632C185.325 195.87 185.181 196.087 184.998 196.27C184.815 196.453 184.598 196.597 184.36 196.696C184.121 196.795 183.865 196.846 183.607 196.846H50.2739C49.7523 196.846 49.252 196.639 48.8832 196.27C48.5143 195.901 48.3071 195.401 48.3071 194.879V107.512C48.3071 106.99 48.5143 106.49 48.8832 106.121C49.252 105.752 49.7523 105.545 50.2739 105.545Z" fill="#425D70"/>
<path d="M144.416 166.237C143.891 166.237 143.373 166.126 142.893 165.913C142.782 165.863 142.675 165.803 142.576 165.732L132.886 158.911C132.394 158.565 131.993 158.106 131.716 157.573C131.439 157.04 131.295 156.448 131.295 155.847V146.544C131.295 145.943 131.439 145.351 131.716 144.818C131.993 144.284 132.394 143.825 132.886 143.479L142.576 136.659C142.675 136.588 142.782 136.528 142.893 136.478C143.464 136.224 144.089 136.117 144.712 136.166C145.335 136.216 145.935 136.42 146.459 136.76C146.983 137.101 147.413 137.566 147.711 138.115C148.009 138.664 148.165 139.279 148.165 139.904V162.487C148.165 163.481 147.77 164.435 147.067 165.138C146.364 165.841 145.411 166.236 144.416 166.236L144.416 166.237Z" fill="white"/>
<path d="M122.73 168.066H95.7037C90.1898 168.062 85.7214 164.497 85.7157 160.099V142.291C85.7214 137.893 90.1898 134.329 95.7037 134.325H122.8C128.275 134.33 132.711 137.868 132.718 142.235V160.099C132.712 164.497 128.244 168.062 122.73 168.066Z" fill="white"/>
<path d="M170.873 191.228C175.312 191.228 178.91 187.629 178.91 183.19C178.91 178.751 175.312 175.152 170.873 175.152C166.433 175.152 162.835 178.751 162.835 183.19C162.835 187.629 166.433 191.228 170.873 191.228Z" fill="white"/>
<path d="M175.047 183.046L168.64 179.347C168.615 179.332 168.586 179.325 168.557 179.325C168.528 179.325 168.499 179.332 168.474 179.347C168.449 179.361 168.428 179.382 168.413 179.408C168.399 179.433 168.391 179.462 168.391 179.491V186.889C168.391 186.918 168.399 186.947 168.413 186.972C168.428 186.998 168.449 187.019 168.474 187.033C168.499 187.048 168.528 187.056 168.557 187.056C168.586 187.056 168.615 187.048 168.64 187.033L175.047 183.334C175.073 183.32 175.094 183.299 175.108 183.273C175.123 183.248 175.131 183.219 175.131 183.19C175.131 183.161 175.123 183.132 175.108 183.107C175.094 183.082 175.073 183.061 175.047 183.046L168.64 179.347C168.615 179.332 168.586 179.325 168.557 179.325C168.528 179.325 168.499 179.332 168.474 179.347C168.449 179.361 168.428 179.382 168.413 179.408C168.399 179.433 168.391 179.462 168.391 179.491V186.889C168.391 186.918 168.399 186.947 168.413 186.972C168.428 186.998 168.449 187.019 168.474 187.033C168.499 187.048 168.528 187.056 168.557 187.056C168.586 187.056 168.615 187.048 168.64 187.033L175.047 183.334C175.073 183.32 175.094 183.299 175.108 183.273C175.123 183.248 175.131 183.219 175.131 183.19C175.131 183.161 175.123 183.132 175.108 183.107C175.094 183.082 175.073 183.061 175.047 183.046Z" fill="#425D70"/>
</g>
<defs>
<clipPath id="clip0_12_2">
<rect width="224.223" height="135" fill="white" transform="translate(38.8885 71)"/>
</clipPath>
</defs>
</svg>
